<svg version="1.1" xmlns="http://www.w3.org/2000/svg" width="1002" height="1001">
<path d="M0 0 C330.66 0 661.32 0 1002 0 C1002 330.33 1002 660.66 1002 1001 C671.34 1001 340.68 1001 0 1001 C0 670.67 0 340.34 0 0 Z" fill="#FDFDFD" transform="translate(0,0)"></path>
<path d="M0 0 C0.66 0 1.32 0 2 0 C2 184.8 2 369.6 2 560 C-328.66 560 -659.32 560 -1000 560 C-1000 382.13 -1000 204.26 -1000 21 C-996.35466351 24.64533649 -994.66346812 27.23172764 -992.44140625 31.68359375 C-990.65470342 34.55490752 -988.39476908 36.61593779 -986 39 C-984.45168378 41.08532026 -982.96217275 43.1697768 -981.5 45.3125 C-976.18275769 52.931906 -970.35088848 60.07989418 -964.44091797 67.24316406 C-962.57782758 69.51473276 -960.75655707 71.81808771 -958.9375 74.125 C-954.3046422 79.93306911 -949.43657524 85.53670225 -944.58203125 91.15917969 C-942.99356775 93.00748444 -941.41705207 94.86534225 -939.84375 96.7265625 C-935.0508042 102.38610176 -930.26473628 107.92614076 -924.91957092 113.07948303 C-923.10190241 114.89804737 -921.42765816 116.77284538 -919.75952148 118.72827148 C-916.06026611 122.98578268 -912.15302338 126.99163188 -908.16015625 130.97265625 C-907.07147499 132.0627726 -907.07147499 132.0627726 -905.96080017 133.1749115 C-904.43676444 134.69962296 -902.91148431 136.2230915 -901.38500977 137.74536133 C-899.06867537 140.05633891 -896.75772922 142.37260771 -894.44726562 144.68945312 C-892.95604966 146.1800082 -891.46452347 147.670253 -889.97265625 149.16015625 C-889.29219742 149.84263931 -888.61173859 150.52512238 -887.91065979 151.22828674 C-884.00094959 155.11925337 -879.9913161 158.83584749 -875.80731201 162.43080139 C-872.85496927 164.9941729 -870.03121431 167.69257588 -867.1875 170.375 C-862.24251138 175.00272311 -857.18772762 179.39827818 -851.8984375 183.6328125 C-848.42467837 186.46987185 -845.05978986 189.41881933 -841.6875 192.375 C-835.18548053 198.05241332 -828.50888654 203.44993695 -821.66894531 208.71337891 C-820.06285132 209.95154674 -818.46484178 211.2001798 -816.8671875 212.44921875 C-809.24614745 218.37987773 -801.45905109 224.05984817 -793.609375 229.68359375 C-790.74709882 231.73528756 -787.90229915 233.80636154 -785.078125 235.91015625 C-731.26713431 275.78616233 -671.7449079 307.76557513 -612.25 338.2043457 C-583.18880448 353.08202536 -583.18880448 353.08202536 -580.625 359.375 C-578.49019948 371.756843 -583.78302149 381.4335658 -590.19775391 391.76611328 C-593.76856643 397.52940176 -597.06396796 403.42474811 -600.3125 409.375 C-600.81595947 410.29015381 -601.31941895 411.20530762 -601.83813477 412.14819336 C-604.46174469 416.96931199 -606.86845071 421.81010399 -609.04614258 426.84765625 C-610.93890701 431.11860871 -613.12399949 435.24919321 -615.26367188 439.40039062 C-616.87908878 442.57911421 -618.22974839 445.52071946 -619 449 C-609.34052482 446.82706064 -600.94115945 442.12379152 -592.25 437.5625 C-590.67057749 436.74122073 -589.09090385 435.92042426 -587.51098633 435.10009766 C-579.19351385 430.77110104 -570.91093101 426.38044534 -562.6875 421.875 C-561.85694092 421.4207666 -561.02638184 420.9665332 -560.1706543 420.49853516 C-556.24142449 418.34404918 -552.3179343 416.18018924 -548.40917969 413.98876953 C-545.12545791 412.14888838 -541.83039612 410.33060802 -538.52920532 408.52227783 C-537.24562357 407.81429122 -535.96591843 407.09921696 -534.69076538 406.37615967 C-521.82397321 399.08714845 -507.86859538 394.53479963 -493.08569336 398.36401367 C-489.88549755 399.33984301 -486.95539911 400.77092976 -484 402.3125 C-483.32904297 402.65587402 -482.65808594 402.99924805 -481.96679688 403.35302734 C-479.63703565 404.5548635 -477.3175836 405.77484769 -475 407 C-474.11183594 407.46873535 -473.22367188 407.9374707 -472.30859375 408.42041016 C-459.91190868 414.99176161 -447.70989103 421.85400816 -435.61083984 428.95703125 C-415.83776807 441.42013197 -415.83776807 441.42013197 -394 449 C-394.42346426 446.72650747 -394.86426879 444.45623953 -395.3125 442.1875 C-395.67794922 440.29064453 -395.67794922 440.29064453 -396.05078125 438.35546875 C-396.98960066 435.03676147 -397.5220956 434.16157617 -400 432 C-400.74386068 429.69011685 -401.42190703 427.35684056 -402 425 C-402.66 425 -403.32 425 -404 425 C-404.66 422.69 -405.32 420.38 -406 418 C-406.66 418 -407.32 418 -408 418 C-408.66 415.69 -409.32 413.38 -410 411 C-410.66 411 -411.32 411 -412 411 C-413.485 406.545 -413.485 406.545 -415 402 C-415.66 402 -416.32 402 -417 402 C-417.96238036 399.96023786 -418.91972527 397.91809954 -419.875 395.875 C-420.67550781 394.16957031 -420.67550781 394.16957031 -421.4921875 392.4296875 C-423.64439832 387.53424424 -425.31724411 383.3931499 -425 378 C-425.66 378 -426.32 378 -427 378 C-427.08164159 375.3118751 -427.14079668 372.626277 -427.1875 369.9375 C-427.22520508 368.80924805 -427.22520508 368.80924805 -427.26367188 367.65820312 C-427.34009439 361.77366919 -426.67234947 356.89037671 -422.48677063 352.36331177 C-416.79972721 347.19907052 -410.62799964 343.94115315 -403.7421875 340.61328125 C-401.9379623 339.72128977 -400.13373943 338.82929356 -398.32963753 337.93705273 C-395.81456538 336.69694512 -393.29409936 335.46802152 -390.77355957 334.23907471 C-385.21361191 331.52559289 -379.66496069 328.78904604 -374.1171875 326.05078125 C-373.51514811 325.75405266 -372.91310871 325.45732407 -372.2928257 325.1516037 C-360.68121838 319.42164646 -349.30414385 313.31192243 -338 307 C-336.84886719 306.36392822 -335.69773437 305.72785645 -334.51171875 305.07250977 C-303.26928591 287.77645764 -273.13543102 268.63662812 -244 248 C-242.67198695 247.06494515 -241.34387422 246.13003183 -240.015625 245.1953125 C-218.22569615 229.80394206 -197.14542306 213.36908408 -176.83251953 196.08081055 C-173.45092892 193.20740982 -170.02495871 190.40106822 -166.5625 187.625 C-161.54824976 183.54908898 -156.81957713 179.21147206 -152.12133789 174.77978516 C-148.47703261 171.34450487 -144.75397158 168.02129736 -140.97631836 164.73339844 C-128.95257916 154.18756171 -117.68865408 142.79301806 -106.375 131.5 C-105.38762848 130.51651077 -105.38762848 130.51651077 -104.38031006 129.51315308 C-95.16990985 120.36542324 -95.16990985 120.36542324 -86.48193359 110.72705078 C-83.80821436 107.6110887 -80.94887254 104.66677869 -78.125 101.6875 C-73.20506227 96.4605134 -68.54625318 91.14137138 -64.06640625 85.53125 C-61.99887218 82.99861847 -59.83886659 80.5926884 -57.625 78.1875 C-52.55235542 72.61200196 -47.94685939 66.71022075 -43.34667969 60.74511719 C-42.09294099 59.12043912 -40.83191304 57.50139325 -39.5703125 55.8828125 C-37.02577717 52.60411616 -34.50687052 49.30751717 -32 46 C-31.50193848 45.34531738 -31.00387695 44.69063477 -30.49072266 44.01611328 C-24.48394462 36.09098826 -18.66132002 28.06991535 -13.171875 19.77734375 C-12.76300049 19.15982239 -12.35412598 18.54230103 -11.93286133 17.90606689 C-9.89718697 14.82449997 -7.87427745 11.73522207 -5.86523438 8.63623047 C-5.12373391 7.50355717 -4.38219911 6.37090634 -3.640625 5.23828125 C-2.98610352 4.22805908 -2.33158203 3.21783691 -1.65722656 2.17700195 C-0.83689941 1.09938599 -0.83689941 1.09938599 0 0 Z" fill="#FEFEFE" transform="translate(1000,441)"></path>
<path d="M0 0 C0 2.31 0 4.62 0 7 C-0.66 7 -1.32 7 -2 7 C-2.31130859 7.96292969 -2.31130859 7.96292969 -2.62890625 8.9453125 C-4.57113761 13.27244903 -7.23483937 16.98936707 -9.9375 20.875 C-10.51943115 21.71780518 -11.1013623 22.56061035 -11.70092773 23.42895508 C-16.5529675 30.42496554 -21.5269471 37.32334284 -26.61865234 44.14648438 C-28.05005089 46.06715913 -29.47253694 47.99422996 -30.89453125 49.921875 C-37.53360596 58.88692122 -44.44033724 67.59891092 -51.53076172 76.21044922 C-52.86298385 77.83311259 -54.18409673 79.46488098 -55.50390625 81.09765625 C-59.81930211 86.43373705 -64.27033388 91.60142704 -68.890625 96.67578125 C-70.74626657 98.72042335 -72.56756376 100.78784149 -74.375 102.875 C-78.15131882 107.20691515 -82.03461101 111.43875739 -85.93017578 115.66308594 C-87.83482249 117.73029526 -89.73086684 119.80424622 -91.62133789 121.88452148 C-99.23308722 130.24171538 -107.13318877 138.28777079 -115.13769531 146.26806641 C-117.26484784 148.38981009 -119.38653561 150.51691491 -121.5078125 152.64453125 C-122.88509583 154.0211544 -124.26268899 155.39746766 -125.640625 156.7734375 C-126.261651 157.39648773 -126.882677 158.01953796 -127.52252197 158.66146851 C-131.30102863 162.42016822 -135.20231377 165.9824356 -139.23416138 169.46774292 C-141.16915403 171.14677868 -143.04384797 172.87705777 -144.89453125 174.6484375 C-145.53438965 175.25671387 -146.17424805 175.86499023 -146.83349609 176.49169922 C-147.48656738 177.11318848 -148.13963867 177.73467773 -148.8125 178.375 C-154.21084835 183.47768573 -159.68243976 188.33048184 -165.4921875 192.9609375 C-168.07603034 195.06181906 -170.5399352 197.25586565 -173 199.5 C-178.17530203 204.20408144 -183.54939747 208.61992659 -189 213 C-189.57411621 213.4630957 -190.14823242 213.92619141 -190.73974609 214.40332031 C-253.87209106 265.31921205 -322.66555185 307.98130548 -395.4453125 343.64453125 C-397.00648939 344.41280055 -398.56760658 345.18119116 -400.12866211 345.94970703 C-403.09927411 347.41176538 -406.07732018 348.85687803 -409.06079102 350.29248047 C-410.41970972 350.95874701 -411.77836611 351.62554891 -413.13671875 352.29296875 C-414.31967529 352.8655542 -415.50263184 353.43813965 -416.72143555 354.02807617 C-421.30735166 356.78631911 -425.00184601 359.89278602 -427.3359375 364.8203125 C-428.17713781 368.84817752 -428.45803234 372.77037832 -428.625 376.875 C-428.66367187 377.65875 -428.70234375 378.4425 -428.7421875 379.25 C-428.83566622 381.16631367 -428.91888495 383.08312319 -429 385 C-428.34 385 -427.68 385 -427 385 C-426.75765625 385.9178125 -426.5153125 386.835625 -426.265625 387.78125 C-424.40640946 394.58883923 -422.35782163 400.76404554 -419 407 C-419 407.66 -419 408.32 -419 409 C-418.34 409 -417.68 409 -417 409 C-414 415.75 -414 415.75 -414 418 C-413.34 418 -412.68 418 -412 418 C-410 421 -410 421 -410 425 C-409.34 425 -408.68 425 -408 425 C-406 428 -406 428 -406 432 C-405.34 432 -404.68 432 -404 432 C-401 438.75 -401 438.75 -401 441 C-400.01 441.33 -399.02 441.66 -398 442 C-396.45073518 446.81087497 -395.74599822 450.91996441 -396 456 C-401.62260381 455.51508111 -405.66657538 454.55396856 -410.75 451.9375 C-411.41281982 451.59662354 -412.07563965 451.25574707 -412.75854492 450.90454102 C-421.56429813 446.29655087 -430.14394901 441.26362529 -438.75511169 436.30470276 C-476.62764922 411.05048558 -476.62764922 411.05048558 -519.5 406.58203125 C-529.2800831 409.32936958 -538.18336956 415.09442974 -547 420 C-548.85172519 421.01380266 -550.70456361 422.02557504 -552.55859375 423.03515625 C-555.28156724 424.51804325 -558.00380327 426.00208651 -560.72216797 427.4934082 C-569.22090356 432.15094595 -577.80737765 436.6321201 -586.41015625 441.09375 C-590.11425053 443.01501149 -593.80931232 444.95197118 -597.49609375 446.90625 C-598.36210205 447.36499512 -599.22811035 447.82374023 -600.12036133 448.29638672 C-601.7397422 449.15540521 -603.35813938 450.01628183 -604.9753418 450.87939453 C-615.25897793 456.3280584 -615.25897793 456.3280584 -621 456 C-620.4507201 450.66532706 -618.58596888 446.72422779 -616.125 442.0625 C-613.54914205 437.10420932 -611.20062465 432.14056676 -609 427 C-607.74240177 424.40785748 -606.41135234 421.85816992 -605.0625 419.3125 C-604.48967285 418.22533691 -604.48967285 418.22533691 -603.90527344 417.11621094 C-600.73654958 411.18901103 -597.26977161 405.47349719 -593.75 399.75 C-587.16923694 388.96763325 -581.67808579 379.41863872 -583.5 366.4375 C-587.34791771 357.61935526 -598.83405597 353.8569811 -607.04608154 349.85491943 C-610.89189283 347.98001782 -614.72394571 346.07728481 -618.55859375 344.1796875 C-619.30667297 343.81050201 -620.0547522 343.44131653 -620.82550049 343.0609436 C-628.44586018 339.29728247 -635.97288373 335.3734773 -643.46240234 331.35644531 C-646.4760335 329.74554145 -649.49791919 328.15056973 -652.51953125 326.5546875 C-666.08530639 319.37277881 -679.45311581 311.9376199 -692.671875 304.12890625 C-696.45942041 301.89281311 -700.27076215 299.71540116 -704.12426758 297.59545898 C-722.66380227 287.38580504 -740.2641351 275.58556512 -757.875 263.875 C-759.09728806 263.06411423 -759.09728806 263.06411423 -760.3442688 262.23684692 C-771.4071803 254.88920143 -782.27136393 247.31100461 -792.99035645 239.470047 C-795.66844639 237.51103388 -798.35222642 235.55987632 -801.03572083 233.60827637 C-818.02963579 221.21488854 -834.38965989 208.05035379 -850.37597656 194.38574219 C-852.06714221 192.94270908 -853.76374619 191.50625183 -855.4609375 190.0703125 C-862.32594124 184.24583485 -869.039118 178.29073457 -875.61865234 172.14575195 C-878.17171807 169.76424126 -880.74669642 167.40825664 -883.32919312 165.05865479 C-891.34141285 157.74126649 -899.03491135 150.11792933 -906.6953125 142.43505859 C-908.88948502 140.23547928 -911.08901723 138.04135993 -913.2890625 135.84765625 C-914.71125856 134.4248 -916.13314471 133.00163391 -917.5546875 131.578125 C-918.19961151 130.93522522 -918.84453552 130.29232544 -919.50900269 129.62994385 C-923.30799964 125.81157594 -926.92472083 121.88269934 -930.43829346 117.79981995 C-932.8441201 115.0271769 -935.36402902 112.36451702 -937.875 109.6875 C-942.35545146 104.87110199 -946.60958253 99.93147022 -950.73046875 94.80078125 C-953.22847758 91.71804057 -955.79690405 88.70311293 -958.375 85.6875 C-963.63866847 79.50360977 -968.67823877 73.16039491 -973.65039062 66.74072266 C-974.99658347 65.00440663 -976.34941071 63.27342428 -977.703125 61.54296875 C-981.96096488 56.077717 -986.08405047 50.59909492 -989.74609375 44.70703125 C-991.0620256 42.71150892 -991.0620256 42.71150892 -994 41 C-995.28125 38.9765625 -995.28125 38.9765625 -996.5 36.625 C-997.73066831 34.26621906 -998.83260739 32.19630755 -1000.56176758 30.16845703 C-1002.29903065 27.54914442 -1002.34994591 26.13037654 -1002.29296875 23.015625 C-1002.28330078 22.08105469 -1002.27363281 21.14648438 -1002.26367188 20.18359375 C-1002.23853516 19.21550781 -1002.21339844 18.24742187 -1002.1875 17.25 C-1002.17396484 16.26644531 -1002.16042969 15.28289062 -1002.14648438 14.26953125 C-1002.11118726 11.84579585 -1002.06188054 9.42317855 -1002 7 C-994.64187964 9.27586586 -987.78250335 12.23434116 -980.8125 15.5 C-979.02694702 16.33301636 -979.02694702 16.33301636 -977.20532227 17.18286133 C-956.15503971 27.05822076 -935.29708327 37.46595368 -914.79077148 48.42651367 C-907.31828999 52.40601839 -899.72888761 56.1514236 -892.14892578 59.92041016 C-885.01337806 63.47019842 -877.90567426 67.05850696 -870.875 70.8125 C-860.62216702 76.28315862 -850.20450214 81.42616806 -839.79248047 86.58520508 C-832.37405106 90.26809053 -825.00593556 94.02808858 -817.6875 97.90625 C-807.87367921 103.10460052 -797.94877666 108.06608519 -788 113 C-778.15549696 117.8822022 -768.33303057 122.78810235 -758.625 127.9375 C-748.17594447 133.47836933 -737.59345193 138.74190941 -727 144 C-716.59004341 149.16701214 -706.18736227 154.33192149 -695.92578125 159.7890625 C-688.08958525 163.95173601 -680.17457771 167.94612759 -672.23046875 171.8984375 C-671.62230442 172.20117836 -671.01414009 172.50391922 -670.38754654 172.81583405 C-664.72621003 175.63342737 -659.06243863 178.44610339 -653.39624023 181.25390625 C-616.80443551 199.39251777 -581.2885459 218.78568875 -549 244 C-548.10796875 244.6909375 -547.2159375 245.381875 -546.296875 246.09375 C-542.02229002 249.45826205 -537.88392718 252.95722412 -533.7800293 256.52587891 C-520.34229185 268.60709853 -520.34229185 268.60709853 -503.09375 272.3046875 C-490.13294321 270.41859995 -480.95650574 259.04972408 -472.59472656 249.99389648 C-445.7287099 220.95658159 -411.31435176 204.41116248 -376.26733398 187.42993164 C-363.40404151 181.19433757 -350.60340962 174.84143674 -337.84106445 168.40185547 C-331.20325309 165.05936284 -324.54605944 161.77059712 -317.82828903 158.5913763 C-301.63563083 150.91853096 -285.62373778 142.88561069 -269.60041714 134.86737132 C-265.46202294 132.79688509 -261.32263201 130.72839309 -257.18341064 128.65956116 C-250.24395183 125.19073441 -243.30532526 121.7202475 -236.3671875 118.2487793 C-228.40043718 114.26268054 -220.43224608 110.2794736 -212.46330714 106.29775232 C-205.55655234 102.84665939 -198.65059361 99.39397734 -191.74527287 95.94001585 C-187.64914201 93.89117985 -183.55275999 91.84285092 -179.45565033 89.79597282 C-157.04194096 78.61406272 -157.04194096 78.61406272 -134.83551025 67.02784729 C-126.90780877 62.80349532 -118.8191033 58.88278836 -110.77050781 54.89550781 C-101.58284874 50.33987642 -92.4558047 45.69130308 -83.39176941 40.89413452 C-73.58164616 35.70777826 -63.69662299 30.66847193 -53.8125 25.625 C-52.34103516 24.87363266 -52.34103516 24.87363266 -50.83984375 24.10708618 C-39.40838067 18.27060795 -27.97412071 12.43977557 -16.5 6.6875 C-15.5716333 6.22102051 -14.6432666 5.75454102 -13.68676758 5.27392578 C-3.11341347 0 -3.11341347 0 0 0 Z" fill="#010101" transform="translate(1002,434)"></path>
<path d="M0 0 C-1.50959795 7.88345594 -3.64144801 14.761072 -7.73046875 21.69140625 C-9.54226824 24.98609394 -10.86365737 28.42572564 -12.203125 31.93359375 C-13 34 -13 34 -14 36 C-14.66 36 -15.32 36 -16 36 C-16.37705078 37.04027344 -16.37705078 37.04027344 -16.76171875 38.1015625 C-32.37206851 74.64061461 -70.15509839 94.41010233 -104.74829102 108.69897461 C-108.69088922 110.27642831 -112.6655331 111.74097772 -116.6652832 113.16625977 C-119.44553684 114.15910366 -122.19143051 115.2290436 -124.9375 116.3125 C-130.54102111 118.48461401 -136.19512591 120.47473986 -141.875 122.4375 C-150.35549141 125.38337147 -158.7135244 128.5417682 -167 132 C-167.96776367 132.4026709 -168.93552734 132.8053418 -169.93261719 133.22021484 C-213.05908939 151.20362949 -251.9980702 171.99533143 -282 209 C-282.77988281 209.95261719 -283.55976562 210.90523437 -284.36328125 211.88671875 C-296.66115975 227.11580387 -309.81494919 243.6382035 -317 262 C-317.33 262.66 -317.66 263.32 -318 264 C-318.66 264 -319.32 264 -320 264 C-320.23456909 264.79071899 -320.23456909 264.79071899 -320.47387695 265.59741211 C-322.45436278 271.9246338 -325.1626138 277.67415208 -328.1875 283.5625 C-328.9156189 285.00061035 -328.9156189 285.00061035 -329.65844727 286.46777344 C-331.100177 289.31466128 -332.54912246 292.15776549 -334 295 C-340.00476775 306.72458496 -340.00476775 306.72458496 -345.140625 318.84765625 C-345.98234698 320.95578721 -346.9482974 322.92713004 -348 324.9375 C-350.04835421 328.91418767 -351.5242292 333.02329458 -353.0078125 337.23828125 C-353.89752591 339.714767 -354.86346225 342.13397342 -355.875 344.5625 C-358.14557596 350.13573191 -359.97748173 355.84996738 -361.80615234 361.58032227 C-362.04672363 362.32209717 -362.28729492 363.06387207 -362.53515625 363.828125 C-362.745354 364.4871582 -362.95555176 365.14619141 -363.17211914 365.82519531 C-364 368 -364 368 -365.44311523 370.85180664 C-367.01749439 374.0353756 -368.21723063 377.18694307 -369.375 380.54296875 C-369.80296875 381.78240234 -370.2309375 383.02183594 -370.671875 384.29882812 C-370.89037109 384.93892822 -371.10886719 385.57902832 -371.33398438 386.23852539 C-371.9929622 388.16690513 -372.66002074 390.09234406 -373.328125 392.01757812 C-375.82554921 399.28794109 -378.06275359 406.56235753 -380 414 C-381.59928782 419.71866554 -383.35513443 425.37806165 -385.14453125 431.0390625 C-386.49841241 435.34158055 -387.76270881 439.66214511 -389 444 C-389.76306441 446.48196738 -390.53255461 448.96088584 -391.3125 451.4375 C-391.52688721 452.12126709 -391.74127441 452.80503418 -391.9621582 453.50952148 C-392.86897065 456.40161608 -393.77783809 459.29306374 -394.68652344 462.18457031 C-395.35423371 464.31032225 -396.02088726 466.43640368 -396.6875 468.5625 C-396.88964111 469.20437256 -397.09178223 469.84624512 -397.30004883 470.50756836 C-398.21353664 473.4213778 -399.09564522 476.33859216 -399.92578125 479.27734375 C-401.6331472 485.19414284 -403.55027531 491.04353485 -405.43359375 496.90625 C-407.35248595 502.90057626 -407.35248595 502.90057626 -409.1171875 508.94140625 C-410.13820738 512.47883353 -411.49455131 515.64695519 -413 519 C-413.99 519 -414.98 519 -416 519 C-418.08386889 513.72086547 -418.57910004 508.60461531 -419 503 C-419.66 503 -420.32 503 -421 503 C-421.20157715 502.26362305 -421.4031543 501.52724609 -421.61083984 500.76855469 C-422.52792986 497.42783964 -423.45139139 494.08891844 -424.375 490.75 C-424.69210937 489.59113281 -425.00921875 488.43226563 -425.3359375 487.23828125 C-425.8 485.56572266 -425.8 485.56572266 -426.2734375 483.859375 C-426.55622559 482.83295898 -426.83901367 481.80654297 -427.13037109 480.74902344 C-427.89781569 478.32301947 -428.81665661 476.24174715 -430 474 C-430.37270182 472.69813184 -430.70679441 471.38454306 -431 470.0625 C-431.53626197 467.77919708 -432.08664357 465.79422153 -433 463.625 C-434.28100507 460.26236169 -434.83564221 456.87315075 -435.5 453.34375 C-435.94529038 450.93195979 -435.94529038 450.93195979 -437 448.5 C-438.6072482 444.48187951 -439.19468413 440.24049138 -440 436 C-440.32434979 434.37318307 -440.65718269 432.74802569 -441 431.125 C-441.144375 430.42632813 -441.28875 429.72765625 -441.4375 429.0078125 C-441.93294353 426.98034696 -441.93294353 426.98034696 -442.9375 425.1796875 C-444.08163604 422.83252606 -444.72976295 420.47053286 -445.43103027 417.96264648 C-446.38254841 414.68040907 -447.49940282 411.45381544 -448.609375 408.22265625 C-448.8586676 407.49364609 -449.10796021 406.76463593 -449.36480713 406.01353455 C-449.89172241 404.47445478 -450.41954944 402.93568688 -450.94824219 401.3972168 C-451.73673865 399.10111702 -452.52090976 396.80357349 -453.3046875 394.50585938 C-456.06077662 386.45463079 -458.91758524 378.45325877 -461.93292236 370.4954071 C-463.89148085 365.32122868 -465.71878299 360.11215324 -467.5 354.875 C-470.30850477 346.73268965 -473.48758501 338.86256115 -477 331 C-477.51612781 329.76713746 -478.03174437 328.53406078 -478.546875 327.30078125 C-479.90870525 323.95014151 -479.90870525 323.95014151 -482 321 C-482.45781336 319.03794274 -482.91543565 317.07584015 -483.37109375 315.11328125 C-484.19144182 312.3567079 -485.50757416 310.14087132 -487 307.69921875 C-488.26726545 305.54585753 -489.21635409 303.28307107 -490.17260742 300.97802734 C-494.43759376 290.78182807 -499.49448219 280.97219117 -504.53515625 271.14453125 C-505.09589844 270.03722656 -505.65664063 268.92992187 -506.234375 267.7890625 C-506.74194336 266.79600098 -507.24951172 265.80293945 -507.77246094 264.77978516 C-508.93244191 262.15298657 -509.56726058 259.82830737 -510 257 C-510.66 257 -511.32 257 -512 257 C-512.391875 256.01 -512.78375 255.02 -513.1875 254 C-514.75548186 250.29865821 -516.78742224 247.03894419 -519.01171875 243.69921875 C-520 242 -520 242 -520 240 C-520.99 239.67 -521.98 239.34 -523 239 C-524.10546875 237.06640625 -524.10546875 237.06640625 -525.1875 234.5625 C-527.99898097 228.63559417 -531.81655071 224.0072173 -536 219 C-537.0882372 217.56620881 -538.17168107 216.1287653 -539.25 214.6875 C-581.60492479 160.16272125 -646.1227736 137.84594086 -708.41796875 114.1796875 C-746.69363861 99.62457344 -785.99634863 81.31939805 -807 44 C-807.70790517 42.35042657 -808.39344207 40.68947024 -809 39 C-809.66 39 -810.32 39 -811 39 C-813.51415677 34.05838153 -815.8787495 29.12635537 -818 24 C-818.33128906 23.21496094 -818.66257812 22.42992187 -819.00390625 21.62109375 C-821.67921034 15.15495286 -824 9.08491774 -824 2 C-817.06277281 2.66548982 -810.62747515 4.79256029 -804 6.875 C-803.36918518 7.07218628 -802.73837036 7.26937256 -802.08843994 7.47253418 C-780.46469707 14.24594397 -759.23665712 22.1377975 -738.01434326 30.06137085 C-725.70888445 34.65378055 -713.36834168 39.14226885 -701 43.5625 C-700.11637787 43.87856201 -699.23275574 44.19462402 -698.32235718 44.52026367 C-689.06171413 47.82879241 -679.78974432 51.09556506 -670.46875 54.23046875 C-630.29483654 67.7422998 -592.49551389 84.62145042 -559 111 C-558.32839844 111.5273877 -557.65679688 112.05477539 -556.96484375 112.59814453 C-544.47366358 122.45539226 -532.90463293 133.0367638 -521.625 144.25 C-520.97080078 144.8994458 -520.31660156 145.5488916 -519.64257812 146.21801758 C-512.59861434 153.28621518 -506.23279118 160.8021641 -500.125 168.6875 C-499.51567627 169.47350586 -498.90635254 170.25951172 -498.27856445 171.06933594 C-490.65739662 180.96465137 -483.74422491 191.27456085 -477.04296875 201.80859375 C-475.68589624 203.92853302 -474.29250458 206.02567435 -472.86328125 208.09765625 C-471.16877466 210.73710781 -470.14175363 213.10003261 -469 216 C-467.58158923 218.61837895 -466.06484514 221.17908543 -464.5625 223.75 C-461.97958505 228.22090036 -459.60773644 232.46031442 -458.125 237.4375 C-457.75375 238.613125 -457.3825 239.78875 -457 241 C-456.01 241.33 -455.02 241.66 -454 242 C-453.11328125 243.6171875 -453.11328125 243.6171875 -452.3125 245.875 C-450.28885443 251.28451169 -448.11114545 256.61315279 -445.875 261.9375 C-445.35160034 263.19892822 -445.35160034 263.19892822 -444.81762695 264.48583984 C-444.48335693 265.28328613 -444.14908691 266.08073242 -443.8046875 266.90234375 C-443.50546387 267.61898193 -443.20624023 268.33562012 -442.89794922 269.07397461 C-441.9425398 271.24994872 -441.9425398 271.24994872 -440 274 C-439.43434918 275.69402163 -438.92226267 277.4060831 -438.4375 279.125 C-436.03390122 287.19162319 -433.14280335 295.07059379 -430.26147461 302.97705078 C-428.55381445 307.66754101 -426.84890035 312.35867878 -425.22265625 317.078125 C-424.98426025 317.7680957 -424.74586426 318.45806641 -424.50024414 319.16894531 C-424 321 -424 321 -424 324 C-423.01 324.33 -422.02 324.66 -421 325 C-419.83203125 326.84765625 -419.83203125 326.84765625 -418.8125 329.0625 C-418.46832031 329.79597656 -418.12414062 330.52945312 -417.76953125 331.28515625 C-417.51558594 331.85105469 -417.26164062 332.41695313 -417 333 C-414.21061788 333.41890218 -414.21061788 333.41890218 -411 333 C-406.39261469 329.27089751 -404.61552879 325.4675365 -402.6875 320.0625 C-402.25691284 318.90560669 -402.25691284 318.90560669 -401.81762695 317.7253418 C-401.19750259 316.0516871 -400.58406113 314.37554441 -399.9765625 312.69726562 C-398.94581551 309.85034244 -397.89594946 307.01093462 -396.84375 304.171875 C-393.0734661 294.20051866 -393.0734661 294.20051866 -389.86328125 284.04296875 C-388.93475725 280.7700267 -387.51880721 278.03761443 -386 275 C-385.71125 273.9275 -385.4225 272.855 -385.125 271.75 C-383.98173596 267.93911988 -382.44440305 264.79020618 -380.62109375 261.2734375 C-378.03878285 256.0590362 -375.72115136 250.72491653 -373.38647461 245.39575195 C-371.2028087 240.46935922 -368.80491206 235.77261957 -366.13891602 231.09082031 C-364.5386901 228.15312797 -363.30072328 225.07991426 -362 222 C-349.30740352 197.50409724 -332.66238867 174.66169306 -314.09375 154.3125 C-312.31095614 152.34344409 -310.58881553 150.34109798 -308.875 148.3125 C-300.69345326 138.92383981 -291.62493296 129.90380779 -282 122 C-281.46890625 121.5551123 -280.9378125 121.11022461 -280.390625 120.65185547 C-252.225006 97.06766328 -220.58352718 77.63129841 -186 65 C-184.84878662 64.57823486 -184.84878662 64.57823486 -183.67431641 64.14794922 C-175.30747972 61.10915939 -166.87016938 58.28323394 -158.421875 55.48046875 C-157.42811356 55.15048889 -157.42811356 55.15048889 -156.41427612 54.81384277 C-153.12117495 53.72097236 -149.82683819 52.63216126 -146.52978516 51.55126953 C-140.29680173 49.49393184 -134.15900734 47.33629171 -128.08740234 44.84204102 C-125.47071824 43.78649207 -122.81594744 42.90878347 -120.125 42.0625 C-116.22729443 40.79095235 -112.44774006 39.39525186 -108.6796875 37.78125 C-101.58648863 34.79680274 -94.41636334 32.03201719 -87.22753906 29.28833008 C-85.00201104 28.43826814 -82.77830995 27.5835479 -80.5546875 26.72851562 C-73.31628456 23.9554775 -66.07094601 21.31320853 -58.69726562 18.91625977 C-55.22569648 17.73696949 -51.85342232 16.35609204 -48.4609375 14.96875 C-43.34354929 12.95428607 -38.0860816 11.33656111 -32.85546875 9.64453125 C-26.79838984 7.66139875 -20.8950347 5.42029811 -15 3 C-13.04675984 2.21635063 -11.089525 1.44241391 -9.125 0.6875 C-8.24070312 0.34074219 -7.35640625 -0.00601563 -6.4453125 -0.36328125 C-3.82872565 -1.04459699 -2.51154226 -0.90532337 0 0 Z" fill="#020202" transform="translate(907,114)"></path>
<path d="M0 0 C-1.31061591 4.23429756 -2.94356259 8.07407404 -5 12 C-5.66 12 -6.32 12 -7 12 C-7.17015625 12.556875 -7.3403125 13.11375 -7.515625 13.6875 C-9.23315937 19.09590609 -11.35342255 23.98062896 -14 29 C-14.66 29 -15.32 29 -16 29 C-16.309375 30.11375 -16.61875 31.2275 -16.9375 32.375 C-18 36 -18 36 -19 38 C-19.66 38 -20.32 38 -21 38 C-21.37318359 39.01900391 -21.37318359 39.01900391 -21.75390625 40.05859375 C-30.97534723 61.82581964 -47.53281309 82.4947902 -61.71533203 101.29150391 C-63.11168385 103.14852976 -64.4920066 105.01684017 -65.87109375 106.88671875 C-78.40268859 123.82302365 -91.7956198 140.15635671 -105.96484375 155.75 C-107.77377543 157.74989375 -109.54891801 159.77269432 -111.3125 161.8125 C-120.30067151 172.10123269 -129.75410747 181.91837879 -139.42871094 191.55908203 C-141.2661576 193.39110995 -143.0981165 195.22850605 -144.9296875 197.06640625 C-150.26428745 202.40402018 -155.58999972 207.69073956 -161.34033203 212.58544922 C-163.90467143 214.77106006 -166.34706571 217.07852555 -168.8125 219.375 C-173.45557189 223.66430703 -178.23441617 227.72678619 -183.16015625 231.69140625 C-185.71841078 233.77108772 -188.23183603 235.89094876 -190.73583984 238.03491211 C-197.08363394 243.46655898 -203.57957745 248.64943091 -210.25048828 253.68017578 C-212.0962497 255.07261037 -213.93675292 256.47183331 -215.77734375 257.87109375 C-242.51393768 278.13465256 -270.58699717 296.65338666 -299.14501953 314.23779297 C-304.110666 317.30278666 -309.05386165 320.40366299 -314 323.5 C-315.99337991 324.74626919 -317.98686942 325.99236308 -319.98046875 327.23828125 C-320.96966309 327.85654785 -321.95885742 328.47481445 -322.97802734 329.11181641 C-326.04345591 331.02715204 -329.10954377 332.94142841 -332.17578125 334.85546875 C-350.90229028 346.54728522 -369.55994952 358.34358335 -388.1796875 370.20458984 C-391.01451464 372.00924002 -393.85078646 373.81159797 -396.6875 375.61328125 C-405.58165325 381.26368449 -414.46610409 386.92694278 -423.30224609 392.66772461 C-427.60834809 395.4622616 -431.9285411 398.23365625 -436.2578125 400.9921875 C-437.36084717 401.69553223 -438.46388184 402.39887695 -439.6003418 403.12353516 C-441.7646856 404.50267295 -443.93014669 405.8800595 -446.09692383 407.25537109 C-451.86514556 410.93246842 -457.51090651 414.71364065 -463.04125977 418.74121094 C-465 420 -465 420 -467 420 C-466.41105326 414.91542644 -465.29637712 410.42975277 -463.625 405.5625 C-463.39949463 404.90145264 -463.17398926 404.24040527 -462.94165039 403.55932617 C-461.6149177 399.69346054 -460.2363583 395.85252232 -458.74609375 392.046875 C-458.12592799 390.34547783 -457.57183717 388.62017162 -457.03515625 386.890625 C-456.69355469 385.79234375 -456.35195313 384.6940625 -456 383.5625 C-455.5359375 382.01755859 -455.5359375 382.01755859 -455.0625 380.44140625 C-454.711875 379.63574219 -454.36125 378.83007812 -454 378 C-453.01 377.67 -452.02 377.34 -451 377 C-450.33798081 375.12549153 -450.33798081 375.12549153 -450.0625 372.875 C-449.32965349 369.02906997 -448.15479907 366.21320733 -446.0625 362.859375 C-444.84971139 360.73699494 -443.99751827 358.59558947 -443.125 356.3125 C-440.80687377 350.33608082 -437.95418779 344.68400689 -435 339 C-434.37544922 337.77796875 -434.37544922 337.77796875 -433.73828125 336.53125 C-425.30328479 320.52248796 -415.2435672 305.42506821 -404.43994141 290.93505859 C-403.14949699 289.20090084 -401.87430534 287.45702019 -400.60546875 285.70703125 C-394.79882442 277.78697764 -388.48916112 270.36165338 -382 263 C-381.20722656 262.09378906 -380.41445313 261.18757813 -379.59765625 260.25390625 C-373.62121679 253.58005408 -367.33460145 247.20717959 -361.02529907 240.85006714 C-360.02569029 239.84241845 -359.02756645 238.83329399 -358.03109741 237.82254028 C-352.16619319 231.88254506 -346.14257989 226.32328647 -339.60791016 221.1105957 C-337.12166913 219.09846748 -334.73895498 217.01225324 -332.3671875 214.8671875 C-309.61805579 194.45646898 -282.44517881 178.62427118 -256.296875 162.97558594 C-251.26875208 159.96258455 -246.25764907 156.92187721 -241.25 153.875 C-240.3221167 153.31063232 -239.3942334 152.74626465 -238.43823242 152.16479492 C-228.5870974 146.15968037 -218.81094948 140.03566934 -209.03808594 133.90429688 C-204.94319526 131.33758623 -200.84321789 128.77905821 -196.7434082 126.22021484 C-179.06955938 115.18694371 -161.4636812 104.04841852 -143.89648438 92.84619141 C-141.96608474 91.61577316 -140.03509507 90.38628013 -138.10351562 89.15771484 C-121.54441366 78.62486834 -105.11410132 67.90553426 -88.72509766 57.11083984 C-84.42365649 54.27803865 -80.1194079 51.4495233 -75.81491089 48.62136841 C-56.44259997 35.89154673 -37.09348479 23.14576443 -18 10 C-15.11076973 8.01093816 -12.21505722 6.03205479 -9.3125 4.0625 C-8.4011731 3.43178589 -8.4011731 3.43178589 -7.47143555 2.78833008 C-3.34234169 0 -3.34234169 0 0 0 Z" fill="#010101" transform="translate(997,216)"></path>
<path d="M0 0 C3.39096524 1.25903081 6.27524899 2.69381241 9.26098633 4.73046875 C10.06985794 5.27864258 10.87872955 5.82681641 11.71211243 6.39160156 C12.57668564 6.98424805 13.44125885 7.57689453 14.33203125 8.1875 C15.24143967 8.80463867 16.15084808 9.42177734 17.08781433 10.05761719 C19.99911198 12.03394121 22.90612715 14.01644213 25.8125 16 C37.2866841 23.82043705 48.74486944 31.61577943 60.58422852 38.87597656 C64.15974776 41.07618253 67.64606706 43.40089108 71.125 45.75 C79.00982222 51.04591602 87.02126676 56.13321632 95.04296875 61.21875 C101.27086349 65.16718767 107.47945245 69.14545802 113.6875 73.125 C138.97596462 89.3214162 164.45332253 105.21458634 190 121 C201.9204931 128.36572945 213.82281663 135.75886107 225.69750977 143.19824219 C232.08731453 147.19577201 238.50002632 151.15382357 244.92773438 155.09008789 C257.08259602 162.53502997 269.1052763 170.14653369 281 178 C281.7022168 178.46132324 282.40443359 178.92264648 283.12792969 179.39794922 C300.57268316 190.86033959 317.29513387 203.23864595 333 217 C333.71873291 217.62970703 334.43746582 218.25941406 335.17797852 218.90820312 C341.6458894 224.64937515 347.82844586 230.64221906 353.94116211 236.75585938 C355.55890192 238.3714068 357.18450636 239.97875034 358.81054688 241.5859375 C364.58542515 247.33054147 369.98454242 253.16650709 375.03515625 259.56762695 C377.07072909 262.08755888 379.22105737 264.45108283 381.4375 266.8125 C386.42904267 272.29102244 390.59651276 278.25066016 394.81982422 284.32324219 C396.54230501 286.77049044 398.33733961 289.16262714 400.125 291.5625 C412 307.84821429 412 307.84821429 412 312 C412.66 312 413.32 312 414 312 C418.4602229 318.17473755 422.4940319 325.47015948 424 333 C424.66 333 425.32 333 426 333 C427.77321415 336.68635969 429.5431404 340.37428887 431.3125 344.0625 C432.06176758 345.62000977 432.06176758 345.62000977 432.82617188 347.20898438 C435.3301957 352.43261024 437.76356284 357.65669418 440 363 C440.58602103 364.34428187 441.17334819 365.68799482 441.76171875 367.03125 C445.65408843 376.01620397 449.23200587 385.08106133 452.5 394.3125 C452.85022217 395.28445313 453.20044434 396.25640625 453.5612793 397.2578125 C455.19769366 401.96976324 456.47513276 405.93474544 456 411 C449.42528053 410.6599283 445.47122802 408.11815577 440.125 404.4375 C438.34721429 403.24741204 436.56852539 402.05867248 434.7890625 400.87109375 C433.85094727 400.24058105 432.91283203 399.61006836 431.94628906 398.96044922 C426.84510706 395.56614267 421.669133 392.28948431 416.5 389 C408.97936996 384.19791056 401.47457325 379.37346731 394 374.5 C383.4427165 367.61880854 372.82539407 360.83246933 362.20556641 354.04833984 C356.96847473 350.70186618 351.73439648 347.35068709 346.5 344 C344.42448204 342.6718705 342.3489612 341.34374551 340.2734375 340.015625 C336.02764968 337.29842704 331.78298868 334.57947963 327.5390625 331.859375 C315.80641614 324.34123042 304.05612587 316.85307042 292.26513672 309.42675781 C286.81786539 305.99564619 281.37372612 302.55960643 275.93359375 299.1171875 C272.53566699 296.96732572 269.13088348 294.82880172 265.72265625 292.6953125 C240.30749522 276.73037301 215.78906598 259.4249784 192.62890625 240.32910156 C190.57693649 238.65480249 188.48238765 237.04128398 186.375 235.4375 C177.37617359 228.50341388 168.87064325 220.87671321 160.4765625 213.23046875 C158.40298184 211.3629379 156.30917028 209.52586512 154.203125 207.6953125 C143.54507197 198.38347455 133.39697698 188.48763376 123.375 178.5 C122.27502686 177.40691528 122.27502686 177.40691528 121.15283203 176.29174805 C117.16150394 172.28897955 113.35191691 168.18807036 109.66162109 163.90673828 C107.0629627 160.92473386 104.33869683 158.06439237 101.625 155.1875 C96.97684467 150.22026907 92.55521464 145.14423967 88.30078125 139.83203125 C85.64089373 136.55797615 82.88722097 133.37508283 80.125 130.1875 C65.36240343 113.05413149 52.0587549 94.7226658 39.375 76.01318359 C37.88952976 73.83825682 36.38429315 71.67798774 34.875 69.51953125 C34.10675903 68.41677856 34.10675903 68.41677856 33.32299805 67.29174805 C32.33567453 65.8754726 31.34508402 64.4614676 30.35083008 63.05004883 C27 58.22443566 27 58.22443566 27 56 C25.515 55.505 25.515 55.505 24 55 C23.6278958 53.67696283 23.29369827 52.34262065 23 51 C22.34 50.67 21.68 50.34 21 50 C20.5359375 48.2675 20.5359375 48.2675 20.0625 46.5 C19.711875 45.345 19.36125 44.19 19 43 C17.515 42.505 17.515 42.505 16 42 C14.8125 38.4375 14.8125 38.4375 14 35 C13.34 35 12.68 35 12 35 C11.34 32.69 10.68 30.38 10 28 C9.34 28 8.68 28 8 28 C7.34 25.69 6.68 23.38 6 21 C5.34 21 4.68 21 4 21 C0.01162482 13.94912244 -0.48817841 8.01426231 0 0 Z" fill="#010101" transform="translate(0,223)"></path>
<path d="M0 0 C0.66 0.33 1.32 0.66 2 1 C-8.89 11.89 -19.78 22.78 -31 34 C-31.66 33.67 -32.32 33.34 -33 33 C-22.90033373 21.76690424 -12.5661538 10.74675882 -1 1 C-0.67 0.67 -0.34 0.34 0 0 Z" fill="#333333" transform="translate(626,235)"></path>
<path d="M0 0 C0.66 0.33 1.32 0.66 2 1 C-5.59 8.59 -13.18 16.18 -21 24 C-21.66 23.67 -22.32 23.34 -23 23 C-15.74913262 14.82136415 -8.17863585 7.25086738 0 0 Z" fill="#363636" transform="translate(546,668)"></path>
<path d="M0 0 C0.66 0.33 1.32 0.66 2 1 C0.87811441 2.14888283 -0.24761684 3.29401137 -1.375 4.4375 C-2.00148438 5.07558594 -2.62796875 5.71367188 -3.2734375 6.37109375 C-5 8 -5 8 -7 9 C-7.66 9.99 -8.32 10.98 -9 12 C-8.52379711 7.62346871 -7.33100111 5.93461995 -3.9375 3.1875 C-3.20402344 2.58292969 -2.47054687 1.97835937 -1.71484375 1.35546875 C-1.14894531 0.90816406 -0.58304688 0.46085938 0 0 Z" fill="#C1C1C1" transform="translate(584,788)"></path>
</svg>
